<svg width="480" height="288" xmlns="http://www.w3.org/2000/svg" xmlns:xlink="http://www.w3.org/1999/xlink" overflow="hidden"><defs><clipPath id="clip0"><rect x="0" y="0" width="480" height="288"/></clipPath><clipPath id="clip1"><rect x="3" y="0" width="480" height="288"/></clipPath><clipPath id="clip2"><rect x="143" y="72" width="306" height="158"/></clipPath><clipPath id="clip3"><rect x="3" y="0" width="480" height="288"/></clipPath><clipPath id="clip4"><rect x="3" y="0" width="480" height="288"/></clipPath><clipPath id="clip5"><rect x="3" y="0" width="480" height="288"/></clipPath><clipPath id="clip6"><rect x="3" y="0" width="480" height="288"/></clipPath><clipPath id="clip7"><rect x="3" y="0" width="480" height="288"/></clipPath><clipPath id="clip8"><rect x="3" y="0" width="480" height="288"/></clipPath><clipPath id="clip9"><rect x="3" y="0" width="480" height="288"/></clipPath><clipPath id="clip10"><rect x="3" y="0" width="480" height="288"/></clipPath><clipPath id="clip11"><rect x="3" y="0" width="480" height="288"/></clipPath><clipPath id="clip12"><rect x="3" y="0" width="480" height="288"/></clipPath><clipPath id="clip13"><rect x="3" y="0" width="480" height="288"/></clipPath><clipPath id="clip14"><rect x="3" y="0" width="480" height="288"/></clipPath><clipPath id="clip15"><rect x="3" y="0" width="480" height="288"/></clipPath></defs><g clip-path="url(#clip0)"><rect x="0" y="0" width="480" height="288" fill="#FFFFFF"/><g clip-path="url(#clip1)"><path d="M219.5 72.5001 219.5 229.5M296.5 72.5001 296.5 229.5M372.5 72.5001 372.5 229.5M448.5 72.5001 448.5 229.5" stroke="#D9D9D9" stroke-linejoin="round" stroke-miterlimit="10" fill="none"/></g><g clip-path="url(#clip2)"><path d="M405 213 144 213 144 194 405 194ZM212 160 144 160 144 142 212 142ZM145 108 144 108 144 89 145 89Z" fill="#4472C4"/></g><g clip-path="url(#clip3)"><path d="M0 0 0.000104987 157" stroke="#D9D9D9" stroke-linejoin="round" stroke-miterlimit="10" fill="none" fill-rule="evenodd" transform="matrix(1 0 0 -1 143.5 229.5)"/></g><g clip-path="url(#clip4)"><text fill="#404040" font-family="Calibri,Calibri_MSFontService,sans-serif" font-weight="400" font-size="27" transform="translate(413.136 212)">343</text></g><g clip-path="url(#clip5)"><text fill="#404040" font-family="Calibri,Calibri_MSFontService,sans-serif" font-weight="400" font-size="27" transform="translate(220.303 160)">90</text></g><g clip-path="url(#clip6)"><text fill="#404040" font-family="Calibri,Calibri_MSFontService,sans-serif" font-weight="400" font-size="27" transform="translate(153.231 107)">2</text></g><g clip-path="url(#clip7)"><text fill="#595959" font-family="Calibri,Calibri_MSFontService,sans-serif" font-weight="400" font-size="27" transform="translate(136.95 272)">0</text></g><g clip-path="url(#clip8)"><text fill="#595959" font-family="Calibri,Calibri_MSFontService,sans-serif" font-weight="400" font-size="27" transform="translate(199.655 272)">100</text></g><g clip-path="url(#clip9)"><text fill="#595959" font-family="Calibri,Calibri_MSFontService,sans-serif" font-weight="400" font-size="27" transform="translate(275.874 272)">200</text></g><g clip-path="url(#clip10)"><text fill="#595959" font-family="Calibri,Calibri_MSFontService,sans-serif" font-weight="400" font-size="27" transform="translate(352.092 272)">300</text></g><g clip-path="url(#clip11)"><text fill="#595959" font-family="Calibri,Calibri_MSFontService,sans-serif" font-weight="400" font-size="27" transform="translate(428.311 272)">400</text></g><g clip-path="url(#clip12)"><text fill="#595959" font-family="Calibri,Calibri_MSFontService,sans-serif" font-weight="400" font-size="27" transform="translate(12.184 212)">Total bins</text></g><g clip-path="url(#clip13)"><text fill="#595959" font-family="Calibri,Calibri_MSFontService,sans-serif" font-weight="400" font-size="27" transform="translate(26.4643 159)">MQ bins</text></g><g clip-path="url(#clip14)"><text fill="#595959" font-family="Calibri,Calibri_MSFontService,sans-serif" font-weight="400" font-size="27" transform="translate(32.7109 107)">HQ bins</text></g><g clip-path="url(#clip15)"><text fill="#595959" font-family="Calibri,Calibri_MSFontService,sans-serif" font-weight="400" font-size="37" transform="translate(122.741 46)">Binning meterics</text></g></g></svg>