<svg width="1440" height="288" xmlns="http://www.w3.org/2000/svg" xmlns:xlink="http://www.w3.org/1999/xlink" overflow="hidden"><defs><clipPath id="clip0"><rect x="0" y="0" width="1440" height="288"/></clipPath></defs><g clip-path="url(#clip0)"><rect x="0" y="0" width="1440" height="288" fill="#FFFFFF"/><rect x="19.5001" y="18.5001" width="118" height="63" stroke="#1F3763" stroke-width="1.33333" stroke-miterlimit="8" fill="#4472C4"/><text font-family="Calibri,Calibri_MSFontService,sans-serif" font-weight="400" font-size="53" transform="translate(33.012 67)">Bins</text><rect x="739.5" y="17.5001" width="667" height="64" stroke="#1F3763" stroke-width="1.33333" stroke-miterlimit="8" fill="#4472C4"/><text font-family="Calibri,Calibri_MSFontService,sans-serif" font-weight="400" font-size="53" transform="translate(756.263 67)">Unique and good quality bins</text><path d="M301.705 82.5001 316.066 100.25 307.177 100.25C294.012 133.724 246.037 156.106 193.556 153.259 239.418 150.771 277.859 129.502 289.363 100.25L280.475 100.25Z" fill="#4472C4" fill-rule="evenodd"/><path d="M184.649 153.5C124.92 153.5 76.5001 121.712 76.5001 82.5001L94.3139 82.5001C94.3139 121.712 142.734 153.5 202.463 153.5Z" fill="#375C9E" fill-rule="evenodd"/><path d="M193.556 153.259C239.418 150.771 277.859 129.502 289.363 100.25L280.475 100.25 301.705 82.5001 316.066 100.25 307.177 100.25C294.848 131.598 251.778 153.5 202.463 153.5L184.649 153.5C124.92 153.5 76.5001 121.712 76.5001 82.5001L94.3139 82.5001C94.3139 121.712 142.734 153.5 202.463 153.5" stroke="#1F3763" stroke-width="1.33333" stroke-miterlimit="8" fill="none" fill-rule="evenodd"/><rect x="651.5" y="157.5" width="143" height="71" stroke="#1F3763" stroke-width="1.33333" stroke-miterlimit="8" fill="#4472C4"/><text font-family="Calibri,Calibri_MSFontService,sans-serif" font-weight="400" font-size="53" transform="translate(667.499 210)">dRep</text><rect x="154.5" y="18.5001" width="549" height="63" stroke="#1F3763" stroke-width="1.33333" stroke-miterlimit="8" fill="#4472C4"/><text font-family="Calibri,Calibri_MSFontService,sans-serif" font-weight="400" font-size="53" transform="translate(167.828 67)">Assigning quality to bins</text><rect x="102.5" y="157.5" width="217" height="71" stroke="#1F3763" stroke-width="1.33333" stroke-miterlimit="8" fill="#4472C4"/><text font-family="Calibri,Calibri_MSFontService,sans-serif" font-weight="400" font-size="53" transform="translate(112.484 210)">checkM2</text><path d="M823.731 82.5001 837.541 100.25 828.67 100.25C813.624 133.438 759.095 155.765 699.064 153.319 752.48 151.142 797.487 129.781 810.875 100.25L802.003 100.25Z" fill="#4472C4" fill-rule="evenodd"/><path d="M690.167 153.5C621.315 153.5 565.5 121.712 565.5 82.5001L583.295 82.5001C583.295 121.712 639.11 153.5 707.961 153.5Z" fill="#375C9E" fill-rule="evenodd"/><path d="M699.064 153.319C752.48 151.142 797.487 129.78 810.875 100.25L802.003 100.25 823.731 82.5001 837.541 100.25 828.67 100.25C814.458 131.598 764.809 153.5 707.962 153.5L690.167 153.5C621.315 153.5 565.5 121.712 565.5 82.5001L583.295 82.5001C583.295 121.712 639.11 153.5 707.961 153.5" stroke="#1F3763" stroke-width="1.33333" stroke-miterlimit="8" fill="none" fill-rule="evenodd"/></g></svg>