<?xml version="1.0" encoding="utf-8" standalone="no"?>
<!DOCTYPE svg PUBLIC "-//W3C//DTD SVG 1.1//EN"
  "http://www.w3.org/Graphics/SVG/1.1/DTD/svg11.dtd">
<!-- Created with matplotlib (https://matplotlib.org/) -->
<svg height="332.925313pt" version="1.1" viewBox="0 0 388.965625 332.925313" width="388.965625pt" xmlns="http://www.w3.org/2000/svg" xmlns:xlink="http://www.w3.org/1999/xlink">
 <metadata>
  <rdf:RDF xmlns:cc="http://creativecommons.org/ns#" xmlns:dc="http://purl.org/dc/elements/1.1/" xmlns:rdf="http://www.w3.org/1999/02/22-rdf-syntax-ns#">
   <cc:Work>
    <dc:type rdf:resource="http://purl.org/dc/dcmitype/StillImage"/>
    <dc:date>2022-12-13T19:27:47.055510</dc:date>
    <dc:format>image/svg+xml</dc:format>
    <dc:creator>
     <cc:Agent>
      <dc:title>Matplotlib v3.3.2, https://matplotlib.org/</dc:title>
     </cc:Agent>
    </dc:creator>
   </cc:Work>
  </rdf:RDF>
 </metadata>
 <defs>
  <style type="text/css">*{stroke-linecap:butt;stroke-linejoin:round;}</style>
 </defs>
 <g id="figure_1">
  <g id="patch_1">
   <path d="M 0 332.925313 
L 388.965625 332.925313 
L 388.965625 0 
L 0 0 
z
" style="fill:#ffffff;"/>
  </g>
  <g id="axes_1">
   <g id="patch_2">
    <path d="M 46.965625 239.758125 
L 381.765625 239.758125 
L 381.765625 22.318125 
L 46.965625 22.318125 
z
" style="fill:#ffffff;"/>
   </g>
   <g id="patch_3">
    <path clip-path="url(#p0caea806f8)" d="M 62.183807 225.960162 
L 73.74192 225.960162 
L 73.74192 229.688597 
L 62.183807 229.688597 
z
" style="fill:#1f77b4;opacity:0.7;"/>
   </g>
   <g id="patch_4">
    <path clip-path="url(#p0caea806f8)" d="M 100.710849 225.960162 
L 112.268962 225.960162 
L 112.268962 213.404484 
L 100.710849 213.404484 
z
" style="fill:#1f77b4;opacity:0.7;"/>
   </g>
   <g id="patch_5">
    <path clip-path="url(#p0caea806f8)" d="M 139.237892 225.960162 
L 150.796005 225.960162 
L 150.796005 226.951036 
L 139.237892 226.951036 
z
" style="fill:#1f77b4;opacity:0.7;"/>
   </g>
   <g id="patch_6">
    <path clip-path="url(#p0caea806f8)" d="M 177.764935 225.960162 
L 189.323047 225.960162 
L 189.323047 181.070704 
L 177.764935 181.070704 
z
" style="fill:#1f77b4;opacity:0.7;"/>
   </g>
   <g id="patch_7">
    <path clip-path="url(#p0caea806f8)" d="M 216.291977 225.960162 
L 227.85009 225.960162 
L 227.85009 217.430542 
L 216.291977 217.430542 
z
" style="fill:#1f77b4;opacity:0.7;"/>
   </g>
   <g id="patch_8">
    <path clip-path="url(#p0caea806f8)" d="M 254.81902 225.960162 
L 266.377132 225.960162 
L 266.377132 224.558713 
L 254.81902 224.558713 
z
" style="fill:#1f77b4;opacity:0.7;"/>
   </g>
   <g id="patch_9">
    <path clip-path="url(#p0caea806f8)" d="M 293.346062 225.960162 
L 304.904175 225.960162 
L 304.904175 230.836341 
L 293.346062 230.836341 
z
" style="fill:#1f77b4;opacity:0.7;"/>
   </g>
   <g id="patch_10">
    <path clip-path="url(#p0caea806f8)" d="M 331.873105 225.960162 
L 343.431218 225.960162 
L 343.431218 154.492593 
L 331.873105 154.492593 
z
" style="fill:#1f77b4;opacity:0.7;"/>
   </g>
   <g id="patch_11">
    <path clip-path="url(#p0caea806f8)" d="M 73.74192 225.960162 
L 85.300032 225.960162 
L 85.300032 218.658948 
L 73.74192 218.658948 
z
" style="fill:#ff7f0e;opacity:0.8;"/>
   </g>
   <g id="patch_12">
    <path clip-path="url(#p0caea806f8)" d="M 112.268962 225.960162 
L 123.827075 225.960162 
L 123.827075 234.734992 
L 112.268962 234.734992 
z
" style="fill:#ff7f0e;opacity:0.8;"/>
   </g>
   <g id="patch_13">
    <path clip-path="url(#p0caea806f8)" d="M 150.796005 225.960162 
L 162.354118 225.960162 
L 162.354118 226.108696 
L 150.796005 226.108696 
z
" style="fill:#ff7f0e;opacity:0.8;"/>
   </g>
   <g id="patch_14">
    <path clip-path="url(#p0caea806f8)" d="M 189.323047 225.960162 
L 200.88116 225.960162 
L 200.88116 170.020171 
L 189.323047 170.020171 
z
" style="fill:#ff7f0e;opacity:0.8;"/>
   </g>
   <g id="patch_15">
    <path clip-path="url(#p0caea806f8)" d="M 227.85009 225.960162 
L 239.408203 225.960162 
L 239.408203 222.04594 
L 227.85009 222.04594 
z
" style="fill:#ff7f0e;opacity:0.8;"/>
   </g>
   <g id="patch_16">
    <path clip-path="url(#p0caea806f8)" d="M 266.377132 225.960162 
L 277.935245 225.960162 
L 277.935245 224.960754 
L 266.377132 224.960754 
z
" style="fill:#ff7f0e;opacity:0.8;"/>
   </g>
   <g id="patch_17">
    <path clip-path="url(#p0caea806f8)" d="M 304.904175 225.960162 
L 316.462288 225.960162 
L 316.462288 230.072865 
L 304.904175 230.072865 
z
" style="fill:#ff7f0e;opacity:0.8;"/>
   </g>
   <g id="patch_18">
    <path clip-path="url(#p0caea806f8)" d="M 343.431218 225.960162 
L 354.98933 225.960162 
L 354.98933 145.157893 
L 343.431218 145.157893 
z
" style="fill:#ff7f0e;opacity:0.8;"/>
   </g>
   <g id="patch_19">
    <path clip-path="url(#p0caea806f8)" d="M 85.300032 225.960162 
L 96.858145 225.960162 
L 96.858145 204.774152 
L 85.300032 204.774152 
z
" style="fill:#2ca02c;opacity:0.9;"/>
   </g>
   <g id="patch_20">
    <path clip-path="url(#p0caea806f8)" d="M 123.827075 225.960162 
L 135.385188 225.960162 
L 135.385188 232.430615 
L 123.827075 232.430615 
z
" style="fill:#2ca02c;opacity:0.9;"/>
   </g>
   <g id="patch_21">
    <path clip-path="url(#p0caea806f8)" d="M 162.354118 225.960162 
L 173.91223 225.960162 
L 173.91223 220.086199 
L 162.354118 220.086199 
z
" style="fill:#2ca02c;opacity:0.9;"/>
   </g>
   <g id="patch_22">
    <path clip-path="url(#p0caea806f8)" d="M 200.88116 225.960162 
L 212.439273 225.960162 
L 212.439273 144.032378 
L 200.88116 144.032378 
z
" style="fill:#2ca02c;opacity:0.9;"/>
   </g>
   <g id="patch_23">
    <path clip-path="url(#p0caea806f8)" d="M 239.408203 225.960162 
L 250.966315 225.960162 
L 250.966315 221.868601 
L 239.408203 221.868601 
z
" style="fill:#2ca02c;opacity:0.9;"/>
   </g>
   <g id="patch_24">
    <path clip-path="url(#p0caea806f8)" d="M 277.935245 225.960162 
L 289.493358 225.960162 
L 289.493358 231.818073 
L 277.935245 231.818073 
z
" style="fill:#2ca02c;opacity:0.9;"/>
   </g>
   <g id="patch_25">
    <path clip-path="url(#p0caea806f8)" d="M 316.462288 225.960162 
L 328.020401 225.960162 
L 328.020401 230.682093 
L 316.462288 230.682093 
z
" style="fill:#2ca02c;opacity:0.9;"/>
   </g>
   <g id="patch_26">
    <path clip-path="url(#p0caea806f8)" d="M 354.98933 225.960162 
L 366.547443 225.960162 
L 366.547443 134.272325 
L 354.98933 134.272325 
z
" style="fill:#2ca02c;opacity:0.9;"/>
   </g>
   <g id="matplotlib.axis_1">
    <g id="xtick_1">
     <g id="line2d_1">
      <defs>
       <path d="M 0 0 
L 0 3.5 
" id="me007a9203d" style="stroke:#000000;stroke-width:0.8;"/>
      </defs>
      <g>
       <use style="stroke:#000000;stroke-width:0.8;" x="79.520976" xlink:href="#me007a9203d" y="239.758125"/>
      </g>
     </g>
     <g id="text_1">
      <!-- Aminoglycoside -->
      <g transform="translate(82.280351 325.725313)rotate(-90)scale(0.1 -0.1)">
       <defs>
        <path d="M 34.1875 63.1875 
L 20.796875 26.90625 
L 47.609375 26.90625 
z
M 28.609375 72.90625 
L 39.796875 72.90625 
L 67.578125 0 
L 57.328125 0 
L 50.6875 18.703125 
L 17.828125 18.703125 
L 11.1875 0 
L 0.78125 0 
z
" id="DejaVuSans-65"/>
        <path d="M 52 44.1875 
Q 55.375 50.25 60.0625 53.125 
Q 64.75 56 71.09375 56 
Q 79.640625 56 84.28125 50.015625 
Q 88.921875 44.046875 88.921875 33.015625 
L 88.921875 0 
L 79.890625 0 
L 79.890625 32.71875 
Q 79.890625 40.578125 77.09375 44.375 
Q 74.3125 48.1875 68.609375 48.1875 
Q 61.625 48.1875 57.5625 43.546875 
Q 53.515625 38.921875 53.515625 30.90625 
L 53.515625 0 
L 44.484375 0 
L 44.484375 32.71875 
Q 44.484375 40.625 41.703125 44.40625 
Q 38.921875 48.1875 33.109375 48.1875 
Q 26.21875 48.1875 22.15625 43.53125 
Q 18.109375 38.875 18.109375 30.90625 
L 18.109375 0 
L 9.078125 0 
L 9.078125 54.6875 
L 18.109375 54.6875 
L 18.109375 46.1875 
Q 21.1875 51.21875 25.484375 53.609375 
Q 29.78125 56 35.6875 56 
Q 41.65625 56 45.828125 52.96875 
Q 50 49.953125 52 44.1875 
z
" id="DejaVuSans-109"/>
        <path d="M 9.421875 54.6875 
L 18.40625 54.6875 
L 18.40625 0 
L 9.421875 0 
z
M 9.421875 75.984375 
L 18.40625 75.984375 
L 18.40625 64.59375 
L 9.421875 64.59375 
z
" id="DejaVuSans-105"/>
        <path d="M 54.890625 33.015625 
L 54.890625 0 
L 45.90625 0 
L 45.90625 32.71875 
Q 45.90625 40.484375 42.875 44.328125 
Q 39.84375 48.1875 33.796875 48.1875 
Q 26.515625 48.1875 22.3125 43.546875 
Q 18.109375 38.921875 18.109375 30.90625 
L 18.109375 0 
L 9.078125 0 
L 9.078125 54.6875 
L 18.109375 54.6875 
L 18.109375 46.1875 
Q 21.34375 51.125 25.703125 53.5625 
Q 30.078125 56 35.796875 56 
Q 45.21875 56 50.046875 50.171875 
Q 54.890625 44.34375 54.890625 33.015625 
z
" id="DejaVuSans-110"/>
        <path d="M 30.609375 48.390625 
Q 23.390625 48.390625 19.1875 42.75 
Q 14.984375 37.109375 14.984375 27.296875 
Q 14.984375 17.484375 19.15625 11.84375 
Q 23.34375 6.203125 30.609375 6.203125 
Q 37.796875 6.203125 41.984375 11.859375 
Q 46.1875 17.53125 46.1875 27.296875 
Q 46.1875 37.015625 41.984375 42.703125 
Q 37.796875 48.390625 30.609375 48.390625 
z
M 30.609375 56 
Q 42.328125 56 49.015625 48.375 
Q 55.71875 40.765625 55.71875 27.296875 
Q 55.71875 13.875 49.015625 6.21875 
Q 42.328125 -1.421875 30.609375 -1.421875 
Q 18.84375 -1.421875 12.171875 6.21875 
Q 5.515625 13.875 5.515625 27.296875 
Q 5.515625 40.765625 12.171875 48.375 
Q 18.84375 56 30.609375 56 
z
" id="DejaVuSans-111"/>
        <path d="M 45.40625 27.984375 
Q 45.40625 37.75 41.375 43.109375 
Q 37.359375 48.484375 30.078125 48.484375 
Q 22.859375 48.484375 18.828125 43.109375 
Q 14.796875 37.75 14.796875 27.984375 
Q 14.796875 18.265625 18.828125 12.890625 
Q 22.859375 7.515625 30.078125 7.515625 
Q 37.359375 7.515625 41.375 12.890625 
Q 45.40625 18.265625 45.40625 27.984375 
z
M 54.390625 6.78125 
Q 54.390625 -7.171875 48.1875 -13.984375 
Q 42 -20.796875 29.203125 -20.796875 
Q 24.46875 -20.796875 20.265625 -20.09375 
Q 16.0625 -19.390625 12.109375 -17.921875 
L 12.109375 -9.1875 
Q 16.0625 -11.328125 19.921875 -12.34375 
Q 23.78125 -13.375 27.78125 -13.375 
Q 36.625 -13.375 41.015625 -8.765625 
Q 45.40625 -4.15625 45.40625 5.171875 
L 45.40625 9.625 
Q 42.625 4.78125 38.28125 2.390625 
Q 33.9375 0 27.875 0 
Q 17.828125 0 11.671875 7.65625 
Q 5.515625 15.328125 5.515625 27.984375 
Q 5.515625 40.671875 11.671875 48.328125 
Q 17.828125 56 27.875 56 
Q 33.9375 56 38.28125 53.609375 
Q 42.625 51.21875 45.40625 46.390625 
L 45.40625 54.6875 
L 54.390625 54.6875 
z
" id="DejaVuSans-103"/>
        <path d="M 9.421875 75.984375 
L 18.40625 75.984375 
L 18.40625 0 
L 9.421875 0 
z
" id="DejaVuSans-108"/>
        <path d="M 32.171875 -5.078125 
Q 28.375 -14.84375 24.75 -17.8125 
Q 21.140625 -20.796875 15.09375 -20.796875 
L 7.90625 -20.796875 
L 7.90625 -13.28125 
L 13.1875 -13.28125 
Q 16.890625 -13.28125 18.9375 -11.515625 
Q 21 -9.765625 23.484375 -3.21875 
L 25.09375 0.875 
L 2.984375 54.6875 
L 12.5 54.6875 
L 29.59375 11.921875 
L 46.6875 54.6875 
L 56.203125 54.6875 
z
" id="DejaVuSans-121"/>
        <path d="M 48.78125 52.59375 
L 48.78125 44.1875 
Q 44.96875 46.296875 41.140625 47.34375 
Q 37.3125 48.390625 33.40625 48.390625 
Q 24.65625 48.390625 19.8125 42.84375 
Q 14.984375 37.3125 14.984375 27.296875 
Q 14.984375 17.28125 19.8125 11.734375 
Q 24.65625 6.203125 33.40625 6.203125 
Q 37.3125 6.203125 41.140625 7.25 
Q 44.96875 8.296875 48.78125 10.40625 
L 48.78125 2.09375 
Q 45.015625 0.34375 40.984375 -0.53125 
Q 36.96875 -1.421875 32.421875 -1.421875 
Q 20.0625 -1.421875 12.78125 6.34375 
Q 5.515625 14.109375 5.515625 27.296875 
Q 5.515625 40.671875 12.859375 48.328125 
Q 20.21875 56 33.015625 56 
Q 37.15625 56 41.109375 55.140625 
Q 45.0625 54.296875 48.78125 52.59375 
z
" id="DejaVuSans-99"/>
        <path d="M 44.28125 53.078125 
L 44.28125 44.578125 
Q 40.484375 46.53125 36.375 47.5 
Q 32.28125 48.484375 27.875 48.484375 
Q 21.1875 48.484375 17.84375 46.4375 
Q 14.5 44.390625 14.5 40.28125 
Q 14.5 37.15625 16.890625 35.375 
Q 19.28125 33.59375 26.515625 31.984375 
L 29.59375 31.296875 
Q 39.15625 29.25 43.1875 25.515625 
Q 47.21875 21.78125 47.21875 15.09375 
Q 47.21875 7.46875 41.1875 3.015625 
Q 35.15625 -1.421875 24.609375 -1.421875 
Q 20.21875 -1.421875 15.453125 -0.5625 
Q 10.6875 0.296875 5.421875 2 
L 5.421875 11.28125 
Q 10.40625 8.6875 15.234375 7.390625 
Q 20.0625 6.109375 24.8125 6.109375 
Q 31.15625 6.109375 34.5625 8.28125 
Q 37.984375 10.453125 37.984375 14.40625 
Q 37.984375 18.0625 35.515625 20.015625 
Q 33.0625 21.96875 24.703125 23.78125 
L 21.578125 24.515625 
Q 13.234375 26.265625 9.515625 29.90625 
Q 5.8125 33.546875 5.8125 39.890625 
Q 5.8125 47.609375 11.28125 51.796875 
Q 16.75 56 26.8125 56 
Q 31.78125 56 36.171875 55.265625 
Q 40.578125 54.546875 44.28125 53.078125 
z
" id="DejaVuSans-115"/>
        <path d="M 45.40625 46.390625 
L 45.40625 75.984375 
L 54.390625 75.984375 
L 54.390625 0 
L 45.40625 0 
L 45.40625 8.203125 
Q 42.578125 3.328125 38.25 0.953125 
Q 33.9375 -1.421875 27.875 -1.421875 
Q 17.96875 -1.421875 11.734375 6.484375 
Q 5.515625 14.40625 5.515625 27.296875 
Q 5.515625 40.1875 11.734375 48.09375 
Q 17.96875 56 27.875 56 
Q 33.9375 56 38.25 53.625 
Q 42.578125 51.265625 45.40625 46.390625 
z
M 14.796875 27.296875 
Q 14.796875 17.390625 18.875 11.75 
Q 22.953125 6.109375 30.078125 6.109375 
Q 37.203125 6.109375 41.296875 11.75 
Q 45.40625 17.390625 45.40625 27.296875 
Q 45.40625 37.203125 41.296875 42.84375 
Q 37.203125 48.484375 30.078125 48.484375 
Q 22.953125 48.484375 18.875 42.84375 
Q 14.796875 37.203125 14.796875 27.296875 
z
" id="DejaVuSans-100"/>
        <path d="M 56.203125 29.59375 
L 56.203125 25.203125 
L 14.890625 25.203125 
Q 15.484375 15.921875 20.484375 11.0625 
Q 25.484375 6.203125 34.421875 6.203125 
Q 39.59375 6.203125 44.453125 7.46875 
Q 49.3125 8.734375 54.109375 11.28125 
L 54.109375 2.78125 
Q 49.265625 0.734375 44.1875 -0.34375 
Q 39.109375 -1.421875 33.890625 -1.421875 
Q 20.796875 -1.421875 13.15625 6.1875 
Q 5.515625 13.8125 5.515625 26.8125 
Q 5.515625 40.234375 12.765625 48.109375 
Q 20.015625 56 32.328125 56 
Q 43.359375 56 49.78125 48.890625 
Q 56.203125 41.796875 56.203125 29.59375 
z
M 47.21875 32.234375 
Q 47.125 39.59375 43.09375 43.984375 
Q 39.0625 48.390625 32.421875 48.390625 
Q 24.90625 48.390625 20.390625 44.140625 
Q 15.875 39.890625 15.1875 32.171875 
z
" id="DejaVuSans-101"/>
       </defs>
       <use xlink:href="#DejaVuSans-65"/>
       <use x="68.408203" xlink:href="#DejaVuSans-109"/>
       <use x="165.820312" xlink:href="#DejaVuSans-105"/>
       <use x="193.603516" xlink:href="#DejaVuSans-110"/>
       <use x="256.982422" xlink:href="#DejaVuSans-111"/>
       <use x="318.164062" xlink:href="#DejaVuSans-103"/>
       <use x="381.640625" xlink:href="#DejaVuSans-108"/>
       <use x="409.423828" xlink:href="#DejaVuSans-121"/>
       <use x="468.603516" xlink:href="#DejaVuSans-99"/>
       <use x="523.583984" xlink:href="#DejaVuSans-111"/>
       <use x="584.765625" xlink:href="#DejaVuSans-115"/>
       <use x="636.865234" xlink:href="#DejaVuSans-105"/>
       <use x="664.648438" xlink:href="#DejaVuSans-100"/>
       <use x="728.125" xlink:href="#DejaVuSans-101"/>
      </g>
     </g>
    </g>
    <g id="xtick_2">
     <g id="line2d_2">
      <g>
       <use style="stroke:#000000;stroke-width:0.8;" x="118.048019" xlink:href="#me007a9203d" y="239.758125"/>
      </g>
     </g>
     <g id="text_2">
      <!-- Beta-Lactam -->
      <g transform="translate(120.807394 310.415938)rotate(-90)scale(0.1 -0.1)">
       <defs>
        <path d="M 19.671875 34.8125 
L 19.671875 8.109375 
L 35.5 8.109375 
Q 43.453125 8.109375 47.28125 11.40625 
Q 51.125 14.703125 51.125 21.484375 
Q 51.125 28.328125 47.28125 31.5625 
Q 43.453125 34.8125 35.5 34.8125 
z
M 19.671875 64.796875 
L 19.671875 42.828125 
L 34.28125 42.828125 
Q 41.5 42.828125 45.03125 45.53125 
Q 48.578125 48.25 48.578125 53.8125 
Q 48.578125 59.328125 45.03125 62.0625 
Q 41.5 64.796875 34.28125 64.796875 
z
M 9.8125 72.90625 
L 35.015625 72.90625 
Q 46.296875 72.90625 52.390625 68.21875 
Q 58.5 63.53125 58.5 54.890625 
Q 58.5 48.1875 55.375 44.234375 
Q 52.25 40.28125 46.1875 39.3125 
Q 53.46875 37.75 57.5 32.78125 
Q 61.53125 27.828125 61.53125 20.40625 
Q 61.53125 10.640625 54.890625 5.3125 
Q 48.25 0 35.984375 0 
L 9.8125 0 
z
" id="DejaVuSans-66"/>
        <path d="M 18.3125 70.21875 
L 18.3125 54.6875 
L 36.8125 54.6875 
L 36.8125 47.703125 
L 18.3125 47.703125 
L 18.3125 18.015625 
Q 18.3125 11.328125 20.140625 9.421875 
Q 21.96875 7.515625 27.59375 7.515625 
L 36.8125 7.515625 
L 36.8125 0 
L 27.59375 0 
Q 17.1875 0 13.234375 3.875 
Q 9.28125 7.765625 9.28125 18.015625 
L 9.28125 47.703125 
L 2.6875 47.703125 
L 2.6875 54.6875 
L 9.28125 54.6875 
L 9.28125 70.21875 
z
" id="DejaVuSans-116"/>
        <path d="M 34.28125 27.484375 
Q 23.390625 27.484375 19.1875 25 
Q 14.984375 22.515625 14.984375 16.5 
Q 14.984375 11.71875 18.140625 8.90625 
Q 21.296875 6.109375 26.703125 6.109375 
Q 34.1875 6.109375 38.703125 11.40625 
Q 43.21875 16.703125 43.21875 25.484375 
L 43.21875 27.484375 
z
M 52.203125 31.203125 
L 52.203125 0 
L 43.21875 0 
L 43.21875 8.296875 
Q 40.140625 3.328125 35.546875 0.953125 
Q 30.953125 -1.421875 24.3125 -1.421875 
Q 15.921875 -1.421875 10.953125 3.296875 
Q 6 8.015625 6 15.921875 
Q 6 25.140625 12.171875 29.828125 
Q 18.359375 34.515625 30.609375 34.515625 
L 43.21875 34.515625 
L 43.21875 35.40625 
Q 43.21875 41.609375 39.140625 45 
Q 35.0625 48.390625 27.6875 48.390625 
Q 23 48.390625 18.546875 47.265625 
Q 14.109375 46.140625 10.015625 43.890625 
L 10.015625 52.203125 
Q 14.9375 54.109375 19.578125 55.046875 
Q 24.21875 56 28.609375 56 
Q 40.484375 56 46.34375 49.84375 
Q 52.203125 43.703125 52.203125 31.203125 
z
" id="DejaVuSans-97"/>
        <path d="M 4.890625 31.390625 
L 31.203125 31.390625 
L 31.203125 23.390625 
L 4.890625 23.390625 
z
" id="DejaVuSans-45"/>
        <path d="M 9.8125 72.90625 
L 19.671875 72.90625 
L 19.671875 8.296875 
L 55.171875 8.296875 
L 55.171875 0 
L 9.8125 0 
z
" id="DejaVuSans-76"/>
       </defs>
       <use xlink:href="#DejaVuSans-66"/>
       <use x="68.603516" xlink:href="#DejaVuSans-101"/>
       <use x="130.126953" xlink:href="#DejaVuSans-116"/>
       <use x="169.335938" xlink:href="#DejaVuSans-97"/>
       <use x="230.615234" xlink:href="#DejaVuSans-45"/>
       <use x="266.699219" xlink:href="#DejaVuSans-76"/>
       <use x="322.412109" xlink:href="#DejaVuSans-97"/>
       <use x="383.691406" xlink:href="#DejaVuSans-99"/>
       <use x="438.671875" xlink:href="#DejaVuSans-116"/>
       <use x="477.880859" xlink:href="#DejaVuSans-97"/>
       <use x="539.160156" xlink:href="#DejaVuSans-109"/>
      </g>
     </g>
    </g>
    <g id="xtick_3">
     <g id="line2d_3">
      <g>
       <use style="stroke:#000000;stroke-width:0.8;" x="156.575061" xlink:href="#me007a9203d" y="239.758125"/>
      </g>
     </g>
     <g id="text_3">
      <!-- Glycopeptide -->
      <g transform="translate(159.334436 312.870625)rotate(-90)scale(0.1 -0.1)">
       <defs>
        <path d="M 59.515625 10.40625 
L 59.515625 29.984375 
L 43.40625 29.984375 
L 43.40625 38.09375 
L 69.28125 38.09375 
L 69.28125 6.78125 
Q 63.578125 2.734375 56.6875 0.65625 
Q 49.8125 -1.421875 42 -1.421875 
Q 24.90625 -1.421875 15.25 8.5625 
Q 5.609375 18.5625 5.609375 36.375 
Q 5.609375 54.25 15.25 64.234375 
Q 24.90625 74.21875 42 74.21875 
Q 49.125 74.21875 55.546875 72.453125 
Q 61.96875 70.703125 67.390625 67.28125 
L 67.390625 56.78125 
Q 61.921875 61.421875 55.765625 63.765625 
Q 49.609375 66.109375 42.828125 66.109375 
Q 29.4375 66.109375 22.71875 58.640625 
Q 16.015625 51.171875 16.015625 36.375 
Q 16.015625 21.625 22.71875 14.15625 
Q 29.4375 6.6875 42.828125 6.6875 
Q 48.046875 6.6875 52.140625 7.59375 
Q 56.25 8.5 59.515625 10.40625 
z
" id="DejaVuSans-71"/>
        <path d="M 18.109375 8.203125 
L 18.109375 -20.796875 
L 9.078125 -20.796875 
L 9.078125 54.6875 
L 18.109375 54.6875 
L 18.109375 46.390625 
Q 20.953125 51.265625 25.265625 53.625 
Q 29.59375 56 35.59375 56 
Q 45.5625 56 51.78125 48.09375 
Q 58.015625 40.1875 58.015625 27.296875 
Q 58.015625 14.40625 51.78125 6.484375 
Q 45.5625 -1.421875 35.59375 -1.421875 
Q 29.59375 -1.421875 25.265625 0.953125 
Q 20.953125 3.328125 18.109375 8.203125 
z
M 48.6875 27.296875 
Q 48.6875 37.203125 44.609375 42.84375 
Q 40.53125 48.484375 33.40625 48.484375 
Q 26.265625 48.484375 22.1875 42.84375 
Q 18.109375 37.203125 18.109375 27.296875 
Q 18.109375 17.390625 22.1875 11.75 
Q 26.265625 6.109375 33.40625 6.109375 
Q 40.53125 6.109375 44.609375 11.75 
Q 48.6875 17.390625 48.6875 27.296875 
z
" id="DejaVuSans-112"/>
       </defs>
       <use xlink:href="#DejaVuSans-71"/>
       <use x="77.490234" xlink:href="#DejaVuSans-108"/>
       <use x="105.273438" xlink:href="#DejaVuSans-121"/>
       <use x="164.453125" xlink:href="#DejaVuSans-99"/>
       <use x="219.433594" xlink:href="#DejaVuSans-111"/>
       <use x="280.615234" xlink:href="#DejaVuSans-112"/>
       <use x="344.091797" xlink:href="#DejaVuSans-101"/>
       <use x="405.615234" xlink:href="#DejaVuSans-112"/>
       <use x="469.091797" xlink:href="#DejaVuSans-116"/>
       <use x="508.300781" xlink:href="#DejaVuSans-105"/>
       <use x="536.083984" xlink:href="#DejaVuSans-100"/>
       <use x="599.560547" xlink:href="#DejaVuSans-101"/>
      </g>
     </g>
    </g>
    <g id="xtick_4">
     <g id="line2d_4">
      <g>
       <use style="stroke:#000000;stroke-width:0.8;" x="195.102104" xlink:href="#me007a9203d" y="239.758125"/>
      </g>
     </g>
     <g id="text_4">
      <!-- Macrolide -->
      <g transform="translate(197.861479 295.075312)rotate(-90)scale(0.1 -0.1)">
       <defs>
        <path d="M 9.8125 72.90625 
L 24.515625 72.90625 
L 43.109375 23.296875 
L 61.8125 72.90625 
L 76.515625 72.90625 
L 76.515625 0 
L 66.890625 0 
L 66.890625 64.015625 
L 48.09375 14.015625 
L 38.1875 14.015625 
L 19.390625 64.015625 
L 19.390625 0 
L 9.8125 0 
z
" id="DejaVuSans-77"/>
        <path d="M 41.109375 46.296875 
Q 39.59375 47.171875 37.8125 47.578125 
Q 36.03125 48 33.890625 48 
Q 26.265625 48 22.1875 43.046875 
Q 18.109375 38.09375 18.109375 28.8125 
L 18.109375 0 
L 9.078125 0 
L 9.078125 54.6875 
L 18.109375 54.6875 
L 18.109375 46.1875 
Q 20.953125 51.171875 25.484375 53.578125 
Q 30.03125 56 36.53125 56 
Q 37.453125 56 38.578125 55.875 
Q 39.703125 55.765625 41.0625 55.515625 
z
" id="DejaVuSans-114"/>
       </defs>
       <use xlink:href="#DejaVuSans-77"/>
       <use x="86.279297" xlink:href="#DejaVuSans-97"/>
       <use x="147.558594" xlink:href="#DejaVuSans-99"/>
       <use x="202.539062" xlink:href="#DejaVuSans-114"/>
       <use x="241.402344" xlink:href="#DejaVuSans-111"/>
       <use x="302.583984" xlink:href="#DejaVuSans-108"/>
       <use x="330.367188" xlink:href="#DejaVuSans-105"/>
       <use x="358.150391" xlink:href="#DejaVuSans-100"/>
       <use x="421.626953" xlink:href="#DejaVuSans-101"/>
      </g>
     </g>
    </g>
    <g id="xtick_5">
     <g id="line2d_5">
      <g>
       <use style="stroke:#000000;stroke-width:0.8;" x="233.629146" xlink:href="#me007a9203d" y="239.758125"/>
      </g>
     </g>
     <g id="text_5">
      <!-- Nitroimidazole -->
      <g transform="translate(236.388521 319.014375)rotate(-90)scale(0.1 -0.1)">
       <defs>
        <path d="M 9.8125 72.90625 
L 23.09375 72.90625 
L 55.421875 11.921875 
L 55.421875 72.90625 
L 64.984375 72.90625 
L 64.984375 0 
L 51.703125 0 
L 19.390625 60.984375 
L 19.390625 0 
L 9.8125 0 
z
" id="DejaVuSans-78"/>
        <path d="M 5.515625 54.6875 
L 48.1875 54.6875 
L 48.1875 46.484375 
L 14.40625 7.171875 
L 48.1875 7.171875 
L 48.1875 0 
L 4.296875 0 
L 4.296875 8.203125 
L 38.09375 47.515625 
L 5.515625 47.515625 
z
" id="DejaVuSans-122"/>
       </defs>
       <use xlink:href="#DejaVuSans-78"/>
       <use x="74.804688" xlink:href="#DejaVuSans-105"/>
       <use x="102.587891" xlink:href="#DejaVuSans-116"/>
       <use x="141.796875" xlink:href="#DejaVuSans-114"/>
       <use x="180.660156" xlink:href="#DejaVuSans-111"/>
       <use x="241.841797" xlink:href="#DejaVuSans-105"/>
       <use x="269.625" xlink:href="#DejaVuSans-109"/>
       <use x="367.037109" xlink:href="#DejaVuSans-105"/>
       <use x="394.820312" xlink:href="#DejaVuSans-100"/>
       <use x="458.296875" xlink:href="#DejaVuSans-97"/>
       <use x="519.576172" xlink:href="#DejaVuSans-122"/>
       <use x="572.066406" xlink:href="#DejaVuSans-111"/>
       <use x="633.248047" xlink:href="#DejaVuSans-108"/>
       <use x="661.03125" xlink:href="#DejaVuSans-101"/>
      </g>
     </g>
    </g>
    <g id="xtick_6">
     <g id="line2d_6">
      <g>
       <use style="stroke:#000000;stroke-width:0.8;" x="272.156189" xlink:href="#me007a9203d" y="239.758125"/>
      </g>
     </g>
     <g id="text_6">
      <!-- Phenicol -->
      <g transform="translate(274.915564 288.789375)rotate(-90)scale(0.1 -0.1)">
       <defs>
        <path d="M 19.671875 64.796875 
L 19.671875 37.40625 
L 32.078125 37.40625 
Q 38.96875 37.40625 42.71875 40.96875 
Q 46.484375 44.53125 46.484375 51.125 
Q 46.484375 57.671875 42.71875 61.234375 
Q 38.96875 64.796875 32.078125 64.796875 
z
M 9.8125 72.90625 
L 32.078125 72.90625 
Q 44.34375 72.90625 50.609375 67.359375 
Q 56.890625 61.8125 56.890625 51.125 
Q 56.890625 40.328125 50.609375 34.8125 
Q 44.34375 29.296875 32.078125 29.296875 
L 19.671875 29.296875 
L 19.671875 0 
L 9.8125 0 
z
" id="DejaVuSans-80"/>
        <path d="M 54.890625 33.015625 
L 54.890625 0 
L 45.90625 0 
L 45.90625 32.71875 
Q 45.90625 40.484375 42.875 44.328125 
Q 39.84375 48.1875 33.796875 48.1875 
Q 26.515625 48.1875 22.3125 43.546875 
Q 18.109375 38.921875 18.109375 30.90625 
L 18.109375 0 
L 9.078125 0 
L 9.078125 75.984375 
L 18.109375 75.984375 
L 18.109375 46.1875 
Q 21.34375 51.125 25.703125 53.5625 
Q 30.078125 56 35.796875 56 
Q 45.21875 56 50.046875 50.171875 
Q 54.890625 44.34375 54.890625 33.015625 
z
" id="DejaVuSans-104"/>
       </defs>
       <use xlink:href="#DejaVuSans-80"/>
       <use x="60.302734" xlink:href="#DejaVuSans-104"/>
       <use x="123.681641" xlink:href="#DejaVuSans-101"/>
       <use x="185.205078" xlink:href="#DejaVuSans-110"/>
       <use x="248.583984" xlink:href="#DejaVuSans-105"/>
       <use x="276.367188" xlink:href="#DejaVuSans-99"/>
       <use x="331.347656" xlink:href="#DejaVuSans-111"/>
       <use x="392.529297" xlink:href="#DejaVuSans-108"/>
      </g>
     </g>
    </g>
    <g id="xtick_7">
     <g id="line2d_7">
      <g>
       <use style="stroke:#000000;stroke-width:0.8;" x="310.683231" xlink:href="#me007a9203d" y="239.758125"/>
      </g>
     </g>
     <g id="text_7">
      <!-- Sulphonamide -->
      <g transform="translate(313.442606 318.512812)rotate(-90)scale(0.1 -0.1)">
       <defs>
        <path d="M 53.515625 70.515625 
L 53.515625 60.890625 
Q 47.90625 63.578125 42.921875 64.890625 
Q 37.9375 66.21875 33.296875 66.21875 
Q 25.25 66.21875 20.875 63.09375 
Q 16.5 59.96875 16.5 54.203125 
Q 16.5 49.359375 19.40625 46.890625 
Q 22.3125 44.4375 30.421875 42.921875 
L 36.375 41.703125 
Q 47.40625 39.59375 52.65625 34.296875 
Q 57.90625 29 57.90625 20.125 
Q 57.90625 9.515625 50.796875 4.046875 
Q 43.703125 -1.421875 29.984375 -1.421875 
Q 24.8125 -1.421875 18.96875 -0.25 
Q 13.140625 0.921875 6.890625 3.21875 
L 6.890625 13.375 
Q 12.890625 10.015625 18.65625 8.296875 
Q 24.421875 6.59375 29.984375 6.59375 
Q 38.421875 6.59375 43.015625 9.90625 
Q 47.609375 13.234375 47.609375 19.390625 
Q 47.609375 24.75 44.3125 27.78125 
Q 41.015625 30.8125 33.5 32.328125 
L 27.484375 33.5 
Q 16.453125 35.6875 11.515625 40.375 
Q 6.59375 45.0625 6.59375 53.421875 
Q 6.59375 63.09375 13.40625 68.65625 
Q 20.21875 74.21875 32.171875 74.21875 
Q 37.3125 74.21875 42.625 73.28125 
Q 47.953125 72.359375 53.515625 70.515625 
z
" id="DejaVuSans-83"/>
        <path d="M 8.5 21.578125 
L 8.5 54.6875 
L 17.484375 54.6875 
L 17.484375 21.921875 
Q 17.484375 14.15625 20.5 10.265625 
Q 23.53125 6.390625 29.59375 6.390625 
Q 36.859375 6.390625 41.078125 11.03125 
Q 45.3125 15.671875 45.3125 23.6875 
L 45.3125 54.6875 
L 54.296875 54.6875 
L 54.296875 0 
L 45.3125 0 
L 45.3125 8.40625 
Q 42.046875 3.421875 37.71875 1 
Q 33.40625 -1.421875 27.6875 -1.421875 
Q 18.265625 -1.421875 13.375 4.4375 
Q 8.5 10.296875 8.5 21.578125 
z
M 31.109375 56 
z
" id="DejaVuSans-117"/>
       </defs>
       <use xlink:href="#DejaVuSans-83"/>
       <use x="63.476562" xlink:href="#DejaVuSans-117"/>
       <use x="126.855469" xlink:href="#DejaVuSans-108"/>
       <use x="154.638672" xlink:href="#DejaVuSans-112"/>
       <use x="218.115234" xlink:href="#DejaVuSans-104"/>
       <use x="281.494141" xlink:href="#DejaVuSans-111"/>
       <use x="342.675781" xlink:href="#DejaVuSans-110"/>
       <use x="406.054688" xlink:href="#DejaVuSans-97"/>
       <use x="467.333984" xlink:href="#DejaVuSans-109"/>
       <use x="564.746094" xlink:href="#DejaVuSans-105"/>
       <use x="592.529297" xlink:href="#DejaVuSans-100"/>
       <use x="656.005859" xlink:href="#DejaVuSans-101"/>
      </g>
     </g>
    </g>
    <g id="xtick_8">
     <g id="line2d_8">
      <g>
       <use style="stroke:#000000;stroke-width:0.8;" x="349.210274" xlink:href="#me007a9203d" y="239.758125"/>
      </g>
     </g>
     <g id="text_8">
      <!-- Tetracycline -->
      <g transform="translate(351.969649 306.440938)rotate(-90)scale(0.1 -0.1)">
       <defs>
        <path d="M -0.296875 72.90625 
L 61.375 72.90625 
L 61.375 64.59375 
L 35.5 64.59375 
L 35.5 0 
L 25.59375 0 
L 25.59375 64.59375 
L -0.296875 64.59375 
z
" id="DejaVuSans-84"/>
       </defs>
       <use xlink:href="#DejaVuSans-84"/>
       <use x="44.083984" xlink:href="#DejaVuSans-101"/>
       <use x="105.607422" xlink:href="#DejaVuSans-116"/>
       <use x="144.816406" xlink:href="#DejaVuSans-114"/>
       <use x="185.929688" xlink:href="#DejaVuSans-97"/>
       <use x="247.208984" xlink:href="#DejaVuSans-99"/>
       <use x="302.189453" xlink:href="#DejaVuSans-121"/>
       <use x="361.369141" xlink:href="#DejaVuSans-99"/>
       <use x="416.349609" xlink:href="#DejaVuSans-108"/>
       <use x="444.132812" xlink:href="#DejaVuSans-105"/>
       <use x="471.916016" xlink:href="#DejaVuSans-110"/>
       <use x="535.294922" xlink:href="#DejaVuSans-101"/>
      </g>
     </g>
    </g>
   </g>
   <g id="matplotlib.axis_2">
    <g id="ytick_1">
     <g id="line2d_9">
      <defs>
       <path d="M 0 0 
L -3.5 0 
" id="mb3afe4a875" style="stroke:#000000;stroke-width:0.8;"/>
      </defs>
      <g>
       <use style="stroke:#000000;stroke-width:0.8;" x="46.965625" xlink:href="#mb3afe4a875" y="225.960162"/>
      </g>
     </g>
     <g id="text_9">
      <!-- 0 -->
      <g transform="translate(33.603125 229.759381)scale(0.1 -0.1)">
       <defs>
        <path d="M 31.78125 66.40625 
Q 24.171875 66.40625 20.328125 58.90625 
Q 16.5 51.421875 16.5 36.375 
Q 16.5 21.390625 20.328125 13.890625 
Q 24.171875 6.390625 31.78125 6.390625 
Q 39.453125 6.390625 43.28125 13.890625 
Q 47.125 21.390625 47.125 36.375 
Q 47.125 51.421875 43.28125 58.90625 
Q 39.453125 66.40625 31.78125 66.40625 
z
M 31.78125 74.21875 
Q 44.046875 74.21875 50.515625 64.515625 
Q 56.984375 54.828125 56.984375 36.375 
Q 56.984375 17.96875 50.515625 8.265625 
Q 44.046875 -1.421875 31.78125 -1.421875 
Q 19.53125 -1.421875 13.0625 8.265625 
Q 6.59375 17.96875 6.59375 36.375 
Q 6.59375 54.828125 13.0625 64.515625 
Q 19.53125 74.21875 31.78125 74.21875 
z
" id="DejaVuSans-48"/>
       </defs>
       <use xlink:href="#DejaVuSans-48"/>
      </g>
     </g>
    </g>
    <g id="ytick_2">
     <g id="line2d_10">
      <g>
       <use style="stroke:#000000;stroke-width:0.8;" x="46.965625" xlink:href="#mb3afe4a875" y="196.868443"/>
      </g>
     </g>
     <g id="text_10">
      <!-- 25 -->
      <g transform="translate(27.240625 200.667661)scale(0.1 -0.1)">
       <defs>
        <path d="M 19.1875 8.296875 
L 53.609375 8.296875 
L 53.609375 0 
L 7.328125 0 
L 7.328125 8.296875 
Q 12.9375 14.109375 22.625 23.890625 
Q 32.328125 33.6875 34.8125 36.53125 
Q 39.546875 41.84375 41.421875 45.53125 
Q 43.3125 49.21875 43.3125 52.78125 
Q 43.3125 58.59375 39.234375 62.25 
Q 35.15625 65.921875 28.609375 65.921875 
Q 23.96875 65.921875 18.8125 64.3125 
Q 13.671875 62.703125 7.8125 59.421875 
L 7.8125 69.390625 
Q 13.765625 71.78125 18.9375 73 
Q 24.125 74.21875 28.421875 74.21875 
Q 39.75 74.21875 46.484375 68.546875 
Q 53.21875 62.890625 53.21875 53.421875 
Q 53.21875 48.921875 51.53125 44.890625 
Q 49.859375 40.875 45.40625 35.40625 
Q 44.1875 33.984375 37.640625 27.21875 
Q 31.109375 20.453125 19.1875 8.296875 
z
" id="DejaVuSans-50"/>
        <path d="M 10.796875 72.90625 
L 49.515625 72.90625 
L 49.515625 64.59375 
L 19.828125 64.59375 
L 19.828125 46.734375 
Q 21.96875 47.46875 24.109375 47.828125 
Q 26.265625 48.1875 28.421875 48.1875 
Q 40.625 48.1875 47.75 41.5 
Q 54.890625 34.8125 54.890625 23.390625 
Q 54.890625 11.625 47.5625 5.09375 
Q 40.234375 -1.421875 26.90625 -1.421875 
Q 22.3125 -1.421875 17.546875 -0.640625 
Q 12.796875 0.140625 7.71875 1.703125 
L 7.71875 11.625 
Q 12.109375 9.234375 16.796875 8.0625 
Q 21.484375 6.890625 26.703125 6.890625 
Q 35.15625 6.890625 40.078125 11.328125 
Q 45.015625 15.765625 45.015625 23.390625 
Q 45.015625 31 40.078125 35.4375 
Q 35.15625 39.890625 26.703125 39.890625 
Q 22.75 39.890625 18.8125 39.015625 
Q 14.890625 38.140625 10.796875 36.28125 
z
" id="DejaVuSans-53"/>
       </defs>
       <use xlink:href="#DejaVuSans-50"/>
       <use x="63.623047" xlink:href="#DejaVuSans-53"/>
      </g>
     </g>
    </g>
    <g id="ytick_3">
     <g id="line2d_11">
      <g>
       <use style="stroke:#000000;stroke-width:0.8;" x="46.965625" xlink:href="#mb3afe4a875" y="167.776723"/>
      </g>
     </g>
     <g id="text_11">
      <!-- 50 -->
      <g transform="translate(27.240625 171.575942)scale(0.1 -0.1)">
       <use xlink:href="#DejaVuSans-53"/>
       <use x="63.623047" xlink:href="#DejaVuSans-48"/>
      </g>
     </g>
    </g>
    <g id="ytick_4">
     <g id="line2d_12">
      <g>
       <use style="stroke:#000000;stroke-width:0.8;" x="46.965625" xlink:href="#mb3afe4a875" y="138.685003"/>
      </g>
     </g>
     <g id="text_12">
      <!-- 75 -->
      <g transform="translate(27.240625 142.484222)scale(0.1 -0.1)">
       <defs>
        <path d="M 8.203125 72.90625 
L 55.078125 72.90625 
L 55.078125 68.703125 
L 28.609375 0 
L 18.3125 0 
L 43.21875 64.59375 
L 8.203125 64.59375 
z
" id="DejaVuSans-55"/>
       </defs>
       <use xlink:href="#DejaVuSans-55"/>
       <use x="63.623047" xlink:href="#DejaVuSans-53"/>
      </g>
     </g>
    </g>
    <g id="ytick_5">
     <g id="line2d_13">
      <g>
       <use style="stroke:#000000;stroke-width:0.8;" x="46.965625" xlink:href="#mb3afe4a875" y="109.593284"/>
      </g>
     </g>
     <g id="text_13">
      <!-- 100 -->
      <g transform="translate(20.878125 113.392503)scale(0.1 -0.1)">
       <defs>
        <path d="M 12.40625 8.296875 
L 28.515625 8.296875 
L 28.515625 63.921875 
L 10.984375 60.40625 
L 10.984375 69.390625 
L 28.421875 72.90625 
L 38.28125 72.90625 
L 38.28125 8.296875 
L 54.390625 8.296875 
L 54.390625 0 
L 12.40625 0 
z
" id="DejaVuSans-49"/>
       </defs>
       <use xlink:href="#DejaVuSans-49"/>
       <use x="63.623047" xlink:href="#DejaVuSans-48"/>
       <use x="127.246094" xlink:href="#DejaVuSans-48"/>
      </g>
     </g>
    </g>
    <g id="ytick_6">
     <g id="line2d_14">
      <g>
       <use style="stroke:#000000;stroke-width:0.8;" x="46.965625" xlink:href="#mb3afe4a875" y="80.501564"/>
      </g>
     </g>
     <g id="text_14">
      <!-- 125 -->
      <g transform="translate(20.878125 84.300783)scale(0.1 -0.1)">
       <use xlink:href="#DejaVuSans-49"/>
       <use x="63.623047" xlink:href="#DejaVuSans-50"/>
       <use x="127.246094" xlink:href="#DejaVuSans-53"/>
      </g>
     </g>
    </g>
    <g id="ytick_7">
     <g id="line2d_15">
      <g>
       <use style="stroke:#000000;stroke-width:0.8;" x="46.965625" xlink:href="#mb3afe4a875" y="51.409845"/>
      </g>
     </g>
     <g id="text_15">
      <!-- 150 -->
      <g transform="translate(20.878125 55.209063)scale(0.1 -0.1)">
       <use xlink:href="#DejaVuSans-49"/>
       <use x="63.623047" xlink:href="#DejaVuSans-53"/>
       <use x="127.246094" xlink:href="#DejaVuSans-48"/>
      </g>
     </g>
    </g>
    <g id="ytick_8">
     <g id="line2d_16">
      <g>
       <use style="stroke:#000000;stroke-width:0.8;" x="46.965625" xlink:href="#mb3afe4a875" y="22.318125"/>
      </g>
     </g>
     <g id="text_16">
      <!-- 175 -->
      <g transform="translate(20.878125 26.117344)scale(0.1 -0.1)">
       <use xlink:href="#DejaVuSans-49"/>
       <use x="63.623047" xlink:href="#DejaVuSans-55"/>
       <use x="127.246094" xlink:href="#DejaVuSans-53"/>
      </g>
     </g>
    </g>
    <g id="text_17">
     <!-- log2(FPKM) -->
     <g transform="translate(14.798438 159.227188)rotate(-90)scale(0.1 -0.1)">
      <defs>
       <path d="M 31 75.875 
Q 24.46875 64.65625 21.28125 53.65625 
Q 18.109375 42.671875 18.109375 31.390625 
Q 18.109375 20.125 21.3125 9.0625 
Q 24.515625 -2 31 -13.1875 
L 23.1875 -13.1875 
Q 15.875 -1.703125 12.234375 9.375 
Q 8.59375 20.453125 8.59375 31.390625 
Q 8.59375 42.28125 12.203125 53.3125 
Q 15.828125 64.359375 23.1875 75.875 
z
" id="DejaVuSans-40"/>
       <path d="M 9.8125 72.90625 
L 51.703125 72.90625 
L 51.703125 64.59375 
L 19.671875 64.59375 
L 19.671875 43.109375 
L 48.578125 43.109375 
L 48.578125 34.8125 
L 19.671875 34.8125 
L 19.671875 0 
L 9.8125 0 
z
" id="DejaVuSans-70"/>
       <path d="M 9.8125 72.90625 
L 19.671875 72.90625 
L 19.671875 42.09375 
L 52.390625 72.90625 
L 65.09375 72.90625 
L 28.90625 38.921875 
L 67.671875 0 
L 54.6875 0 
L 19.671875 35.109375 
L 19.671875 0 
L 9.8125 0 
z
" id="DejaVuSans-75"/>
       <path d="M 8.015625 75.875 
L 15.828125 75.875 
Q 23.140625 64.359375 26.78125 53.3125 
Q 30.421875 42.28125 30.421875 31.390625 
Q 30.421875 20.453125 26.78125 9.375 
Q 23.140625 -1.703125 15.828125 -13.1875 
L 8.015625 -13.1875 
Q 14.5 -2 17.703125 9.0625 
Q 20.90625 20.125 20.90625 31.390625 
Q 20.90625 42.671875 17.703125 53.65625 
Q 14.5 64.65625 8.015625 75.875 
z
" id="DejaVuSans-41"/>
      </defs>
      <use xlink:href="#DejaVuSans-108"/>
      <use x="27.783203" xlink:href="#DejaVuSans-111"/>
      <use x="88.964844" xlink:href="#DejaVuSans-103"/>
      <use x="152.441406" xlink:href="#DejaVuSans-50"/>
      <use x="216.064453" xlink:href="#DejaVuSans-40"/>
      <use x="255.078125" xlink:href="#DejaVuSans-70"/>
      <use x="312.597656" xlink:href="#DejaVuSans-80"/>
      <use x="372.900391" xlink:href="#DejaVuSans-75"/>
      <use x="438.476562" xlink:href="#DejaVuSans-77"/>
      <use x="524.755859" xlink:href="#DejaVuSans-41"/>
     </g>
    </g>
   </g>
   <g id="patch_27">
    <path d="M 46.965625 239.758125 
L 46.965625 22.318125 
" style="fill:none;stroke:#000000;stroke-linecap:square;stroke-linejoin:miter;stroke-width:0.8;"/>
   </g>
   <g id="patch_28">
    <path d="M 381.765625 239.758125 
L 381.765625 22.318125 
" style="fill:none;stroke:#000000;stroke-linecap:square;stroke-linejoin:miter;stroke-width:0.8;"/>
   </g>
   <g id="patch_29">
    <path d="M 46.965625 239.758125 
L 381.765625 239.758125 
" style="fill:none;stroke:#000000;stroke-linecap:square;stroke-linejoin:miter;stroke-width:0.8;"/>
   </g>
   <g id="patch_30">
    <path d="M 46.965625 22.318125 
L 381.765625 22.318125 
" style="fill:none;stroke:#000000;stroke-linecap:square;stroke-linejoin:miter;stroke-width:0.8;"/>
   </g>
   <g id="text_18">
    <!-- log2(FPKM) of resistance genes categories -->
    <g transform="translate(86.791563 16.318125)scale(0.12 -0.12)">
     <defs>
      <path id="DejaVuSans-32"/>
      <path d="M 37.109375 75.984375 
L 37.109375 68.5 
L 28.515625 68.5 
Q 23.6875 68.5 21.796875 66.546875 
Q 19.921875 64.59375 19.921875 59.515625 
L 19.921875 54.6875 
L 34.71875 54.6875 
L 34.71875 47.703125 
L 19.921875 47.703125 
L 19.921875 0 
L 10.890625 0 
L 10.890625 47.703125 
L 2.296875 47.703125 
L 2.296875 54.6875 
L 10.890625 54.6875 
L 10.890625 58.5 
Q 10.890625 67.625 15.140625 71.796875 
Q 19.390625 75.984375 28.609375 75.984375 
z
" id="DejaVuSans-102"/>
     </defs>
     <use xlink:href="#DejaVuSans-108"/>
     <use x="27.783203" xlink:href="#DejaVuSans-111"/>
     <use x="88.964844" xlink:href="#DejaVuSans-103"/>
     <use x="152.441406" xlink:href="#DejaVuSans-50"/>
     <use x="216.064453" xlink:href="#DejaVuSans-40"/>
     <use x="255.078125" xlink:href="#DejaVuSans-70"/>
     <use x="312.597656" xlink:href="#DejaVuSans-80"/>
     <use x="372.900391" xlink:href="#DejaVuSans-75"/>
     <use x="438.476562" xlink:href="#DejaVuSans-77"/>
     <use x="524.755859" xlink:href="#DejaVuSans-41"/>
     <use x="563.769531" xlink:href="#DejaVuSans-32"/>
     <use x="595.556641" xlink:href="#DejaVuSans-111"/>
     <use x="656.738281" xlink:href="#DejaVuSans-102"/>
     <use x="691.943359" xlink:href="#DejaVuSans-32"/>
     <use x="723.730469" xlink:href="#DejaVuSans-114"/>
     <use x="762.59375" xlink:href="#DejaVuSans-101"/>
     <use x="824.117188" xlink:href="#DejaVuSans-115"/>
     <use x="876.216797" xlink:href="#DejaVuSans-105"/>
     <use x="904" xlink:href="#DejaVuSans-115"/>
     <use x="956.099609" xlink:href="#DejaVuSans-116"/>
     <use x="995.308594" xlink:href="#DejaVuSans-97"/>
     <use x="1056.587891" xlink:href="#DejaVuSans-110"/>
     <use x="1119.966797" xlink:href="#DejaVuSans-99"/>
     <use x="1174.947266" xlink:href="#DejaVuSans-101"/>
     <use x="1236.470703" xlink:href="#DejaVuSans-32"/>
     <use x="1268.257812" xlink:href="#DejaVuSans-103"/>
     <use x="1331.734375" xlink:href="#DejaVuSans-101"/>
     <use x="1393.257812" xlink:href="#DejaVuSans-110"/>
     <use x="1456.636719" xlink:href="#DejaVuSans-101"/>
     <use x="1518.160156" xlink:href="#DejaVuSans-115"/>
     <use x="1570.259766" xlink:href="#DejaVuSans-32"/>
     <use x="1602.046875" xlink:href="#DejaVuSans-99"/>
     <use x="1657.027344" xlink:href="#DejaVuSans-97"/>
     <use x="1718.306641" xlink:href="#DejaVuSans-116"/>
     <use x="1757.515625" xlink:href="#DejaVuSans-101"/>
     <use x="1819.039062" xlink:href="#DejaVuSans-103"/>
     <use x="1882.515625" xlink:href="#DejaVuSans-111"/>
     <use x="1943.697266" xlink:href="#DejaVuSans-114"/>
     <use x="1984.810547" xlink:href="#DejaVuSans-105"/>
     <use x="2012.59375" xlink:href="#DejaVuSans-101"/>
     <use x="2074.117188" xlink:href="#DejaVuSans-115"/>
    </g>
   </g>
   <g id="legend_1">
    <g id="patch_31">
     <path d="M 330.040625 74.3525 
L 374.765625 74.3525 
Q 376.765625 74.3525 376.765625 72.3525 
L 376.765625 29.318125 
Q 376.765625 27.318125 374.765625 27.318125 
L 330.040625 27.318125 
Q 328.040625 27.318125 328.040625 29.318125 
L 328.040625 72.3525 
Q 328.040625 74.3525 330.040625 74.3525 
z
" style="fill:#ffffff;opacity:0.8;stroke:#cccccc;stroke-linejoin:miter;"/>
    </g>
    <g id="patch_32">
     <path d="M 332.040625 38.916562 
L 352.040625 38.916562 
L 352.040625 31.916562 
L 332.040625 31.916562 
z
" style="fill:#1f77b4;opacity:0.7;"/>
    </g>
    <g id="text_19">
     <!-- 08 -->
     <g transform="translate(360.040625 38.916562)scale(0.1 -0.1)">
      <defs>
       <path d="M 31.78125 34.625 
Q 24.75 34.625 20.71875 30.859375 
Q 16.703125 27.09375 16.703125 20.515625 
Q 16.703125 13.921875 20.71875 10.15625 
Q 24.75 6.390625 31.78125 6.390625 
Q 38.8125 6.390625 42.859375 10.171875 
Q 46.921875 13.96875 46.921875 20.515625 
Q 46.921875 27.09375 42.890625 30.859375 
Q 38.875 34.625 31.78125 34.625 
z
M 21.921875 38.8125 
Q 15.578125 40.375 12.03125 44.71875 
Q 8.5 49.078125 8.5 55.328125 
Q 8.5 64.0625 14.71875 69.140625 
Q 20.953125 74.21875 31.78125 74.21875 
Q 42.671875 74.21875 48.875 69.140625 
Q 55.078125 64.0625 55.078125 55.328125 
Q 55.078125 49.078125 51.53125 44.71875 
Q 48 40.375 41.703125 38.8125 
Q 48.828125 37.15625 52.796875 32.3125 
Q 56.78125 27.484375 56.78125 20.515625 
Q 56.78125 9.90625 50.3125 4.234375 
Q 43.84375 -1.421875 31.78125 -1.421875 
Q 19.734375 -1.421875 13.25 4.234375 
Q 6.78125 9.90625 6.78125 20.515625 
Q 6.78125 27.484375 10.78125 32.3125 
Q 14.796875 37.15625 21.921875 38.8125 
z
M 18.3125 54.390625 
Q 18.3125 48.734375 21.84375 45.5625 
Q 25.390625 42.390625 31.78125 42.390625 
Q 38.140625 42.390625 41.71875 45.5625 
Q 45.3125 48.734375 45.3125 54.390625 
Q 45.3125 60.0625 41.71875 63.234375 
Q 38.140625 66.40625 31.78125 66.40625 
Q 25.390625 66.40625 21.84375 63.234375 
Q 18.3125 60.0625 18.3125 54.390625 
z
" id="DejaVuSans-56"/>
      </defs>
      <use xlink:href="#DejaVuSans-48"/>
      <use x="63.623047" xlink:href="#DejaVuSans-56"/>
     </g>
    </g>
    <g id="patch_33">
     <path d="M 332.040625 53.594688 
L 352.040625 53.594688 
L 352.040625 46.594688 
L 332.040625 46.594688 
z
" style="fill:#ff7f0e;opacity:0.8;"/>
    </g>
    <g id="text_20">
     <!-- 09 -->
     <g transform="translate(360.040625 53.594688)scale(0.1 -0.1)">
      <defs>
       <path d="M 10.984375 1.515625 
L 10.984375 10.5 
Q 14.703125 8.734375 18.5 7.8125 
Q 22.3125 6.890625 25.984375 6.890625 
Q 35.75 6.890625 40.890625 13.453125 
Q 46.046875 20.015625 46.78125 33.40625 
Q 43.953125 29.203125 39.59375 26.953125 
Q 35.25 24.703125 29.984375 24.703125 
Q 19.046875 24.703125 12.671875 31.3125 
Q 6.296875 37.9375 6.296875 49.421875 
Q 6.296875 60.640625 12.9375 67.421875 
Q 19.578125 74.21875 30.609375 74.21875 
Q 43.265625 74.21875 49.921875 64.515625 
Q 56.59375 54.828125 56.59375 36.375 
Q 56.59375 19.140625 48.40625 8.859375 
Q 40.234375 -1.421875 26.421875 -1.421875 
Q 22.703125 -1.421875 18.890625 -0.6875 
Q 15.09375 0.046875 10.984375 1.515625 
z
M 30.609375 32.421875 
Q 37.25 32.421875 41.125 36.953125 
Q 45.015625 41.5 45.015625 49.421875 
Q 45.015625 57.28125 41.125 61.84375 
Q 37.25 66.40625 30.609375 66.40625 
Q 23.96875 66.40625 20.09375 61.84375 
Q 16.21875 57.28125 16.21875 49.421875 
Q 16.21875 41.5 20.09375 36.953125 
Q 23.96875 32.421875 30.609375 32.421875 
z
" id="DejaVuSans-57"/>
      </defs>
      <use xlink:href="#DejaVuSans-48"/>
      <use x="63.623047" xlink:href="#DejaVuSans-57"/>
     </g>
    </g>
    <g id="patch_34">
     <path d="M 332.040625 68.272812 
L 352.040625 68.272812 
L 352.040625 61.272812 
L 332.040625 61.272812 
z
" style="fill:#2ca02c;opacity:0.9;"/>
    </g>
    <g id="text_21">
     <!-- 10 -->
     <g transform="translate(360.040625 68.272812)scale(0.1 -0.1)">
      <use xlink:href="#DejaVuSans-49"/>
      <use x="63.623047" xlink:href="#DejaVuSans-48"/>
     </g>
    </g>
   </g>
  </g>
 </g>
 <defs>
  <clipPath id="p0caea806f8">
   <rect height="217.44" width="334.8" x="46.965625" y="22.318125"/>
  </clipPath>
 </defs>
</svg>
